<?xml version="1.0" standalone="no"?>
<!DOCTYPE svg PUBLIC "-//W3C//DTD SVG 20010904//EN"
 "http://www.w3.org/TR/2001/REC-SVG-20010904/DTD/svg10.dtd">
<svg version="1.0" xmlns="http://www.w3.org/2000/svg"
 width="813.000000pt" height="217.000000pt" viewBox="0 0 813.000000 217.000000"
 preserveAspectRatio="xMidYMid meet">
<g transform="translate(0.000000,217.000000) scale(0.100000,-0.100000)"
fill="#000000" stroke="none">
<path style="fill: transparent;   outline: 20rem solid white;" d="M2712 1679 c-157 -20 -331 -149 -409 -304 -20 -38 -63 -167 -63 -186
0 -5 33 -9 73 -9 l72 0 19 66 c10 36 35 91 56 122 194 300 599 232 712 -119
l22 -69 68 0 c64 0 68 1 68 23 -1 37 -43 150 -80 210 -67 111 -205 221 -315
252 -69 19 -149 24 -223 14z"/>
<path  style="fill: transparent"  d="M1170 1375 l0 -305 70 73 69 72 1 233 0 232 -70 0 -70 0 0 -305z"/>
<path  style="fill: transparent" d="M1551 1273 l-380 -408 -1 -182 0 -183 70 0 70 0 0 178 0 177 104 110
c84 89 106 108 117 98 8 -6 106 -136 219 -287 l205 -275 78 -1 78 0 -59 78
c-32 42 -145 191 -251 330 l-192 253 207 227 c114 125 221 242 238 260 l30 32
-76 0 -76 0 -381 -407z"/>
<path  style="fill: transparent"  d="M3680 1091 l0 -591 70 0 70 0 0 215 0 214 69 3 70 3 -35 58 c-32 51
-39 57 -70 57 l-34 0 0 250 0 250 198 0 c185 0 201 -1 242 -22 51 -26 103 -96
121 -161 29 -107 -26 -248 -116 -295 -17 -8 -68 -18 -117 -21 l-87 -6 168
-263 c92 -144 172 -267 177 -272 6 -6 43 -10 86 -8 l75 3 -138 220 c-77 120
-139 222 -139 225 0 3 20 13 45 24 60 24 127 92 162 164 25 51 28 67 28 162 0
95 -3 111 -28 162 -39 79 -110 151 -182 185 l-60 28 -287 3 -288 3 0 -590z"/>
<path  style="fill: transparent"  d="M4890 1500 l0 -180 70 0 70 0 0 115 0 115 320 0 320 0 0 65 0 65
-390 0 -390 0 0 -180z"/>
<path  style="fill: transparent"  d="M6010 1090 l0 -590 75 0 75 0 0 590 0 590 -75 0 -75 0 0 -590z"/>
<path  style="fill: transparent"  d="M6820 1425 l0 -255 -260 0 -260 0 0 -65 0 -65 260 0 260 0 0 -270 0
-270 70 0 70 0 0 590 0 590 -70 0 -70 0 0 -255z"/>
<path  style="fill: transparent"  d="M4890 970 l0 -190 70 0 70 0 0 130 0 130 275 0 275 0 0 60 0 60 -345
0 -345 0 0 -190z"/>
<path  style="fill: transparent"  d="M2240 1003 c0 -37 31 -131 66 -201 62 -127 198 -248 316 -283 105
-31 240 -28 345 7 72 24 178 99 229 162 68 83 120 196 138 300 l6 32 -73 0
-72 0 -13 -52 c-56 -238 -254 -382 -467 -338 -155 31 -281 162 -319 328 l-13
57 -71 3 c-64 3 -72 1 -72 -15z"/>
<path  style="fill: transparent"  d="M4890 565 l0 -65 395 0 395 0 0 65 0 65 -395 0 -395 0 0 -65z"/>
</g>
</svg>
