<?xml version="1.0" standalone="no"?>
<!DOCTYPE svg PUBLIC "-//W3C//DTD SVG 20010904//EN"
 "http://www.w3.org/TR/2001/REC-SVG-20010904/DTD/svg10.dtd">
<svg version="1.0" xmlns="http://www.w3.org/2000/svg"
 width="92.000000pt" height="64.000000pt" viewBox="0 0 92.000000 64.000000"
 preserveAspectRatio="xMidYMid meet">
<metadata>
Created by potrace 1.15, written by Peter Selinger 2001-2017
</metadata>
<g transform="translate(0.000000,64.000000) scale(0.100000,-0.100000)"
fill="#000000" stroke="none">
<path d="M330 615 c0 -24 -3 -25 -55 -25 -54 0 -55 0 -55 -30 0 -25 -4 -30
-25 -30 -20 0 -25 -5 -25 -25 0 -21 -5 -25 -30 -25 -25 0 -30 -4 -30 -25 0
-20 -5 -25 -25 -25 -25 0 -25 -1 -25 -80 0 -79 0 -80 -25 -80 -25 0 -25 -1
-25 -80 0 -79 0 -80 25 -80 21 0 25 -5 25 -30 l0 -30 105 0 105 0 0 -25 0 -25
135 0 135 0 0 25 0 25 130 0 130 0 0 30 c0 27 3 30 30 30 29 0 30 1 30 50 0
47 2 50 25 50 21 0 25 5 25 30 0 25 -4 30 -25 30 -20 0 -25 5 -25 25 0 21 -5
25 -30 25 l-30 0 0 80 c0 79 0 80 -25 80 -20 0 -25 5 -25 25 0 20 -5 25 -25
25 -21 0 -25 5 -25 30 0 27 -3 30 -30 30 -25 0 -30 4 -30 25 l0 25 -155 0
-155 0 0 -25z m160 -55 c0 -25 4 -30 25 -30 21 0 25 5 25 30 0 29 1 30 50 30
49 0 50 -1 50 -30 0 -27 3 -30 30 -30 25 0 30 -4 30 -25 0 -20 5 -25 25 -25
25 0 25 -1 25 -80 l0 -80 -105 0 -105 0 0 -25 c0 -20 -5 -25 -25 -25 -21 0
-25 -5 -25 -30 0 -27 -3 -30 -30 -30 -25 0 -30 -4 -30 -25 0 -21 5 -25 30 -25
25 0 30 -4 30 -25 0 -20 5 -25 25 -25 21 0 25 -5 25 -30 l0 -30 -135 0 -135 0
0 55 c0 52 -1 55 -25 55 -20 0 -25 -5 -25 -25 0 -25 -1 -25 -80 -25 l-80 0 0
80 0 80 135 0 135 0 0 25 0 25 -110 0 -110 0 0 55 c0 54 0 55 30 55 25 0 30 4
30 25 0 20 5 25 25 25 20 0 25 5 25 25 0 24 3 25 55 25 54 0 55 0 55 30 l0 30
80 0 80 0 0 -30z"/>
</g>
</svg>
