<svg xmlns="http://www.w3.org/2000/svg" viewBox="0 0 78.96 47.33"><defs><style>.cls-1{fill:#c44272;}.cls-2{fill:#a03d6a;}.cls-3{fill:#ad2a66;}.cls-4{fill:#422445;}.cls-5{fill:#2d112b;}.cls-6{fill:#371f3a;}.cls-7{fill:#190919;}.cls-8{fill:#220626;}.cls-9{fill:#3a153f;}</style></defs><title>Logo</title><g id="Layer_2" data-name="Layer 2"><g id="Layer_2-2" data-name="Layer 2"><polygon class="cls-1" points="12.55 31.22 12.13 47.33 78.96 47.33 78.96 31.22 12.55 31.22"/><polygon class="cls-2" points="8.15 26.65 12.55 31.19 12.55 31.22 78.96 31.22 73.65 26.18 8.15 26.57 8.15 26.65"/><polygon class="cls-3" points="12.55 31.19 8.15 26.65 8.19 43.51 8.19 43.51 8.19 43.6 12.13 47.33 12.55 31.22 12.55 31.19"/><polygon class="cls-4" points="8.15 26.57 73.65 26.18 73.79 17.9 8.13 17.9 8.15 26.57"/><polygon class="cls-5" points="4.48 13.51 67.99 13.25 68.9 13.25 68.9 5.06 4.44 4.97 4.47 5 4.48 13.51"/><polygon class="cls-6" points="8.13 17.9 73.79 17.9 69.14 13.25 4.48 13.51 4.48 13.73 8.13 17.9"/><polygon class="cls-7" points="69.14 5.06 64.27 0 0 0.57 4.47 4.97 69.14 5.06"/><polygon class="cls-8" points="4.29 13.51 4.48 13.73 4.48 13.51 4.48 13.51 4.47 5 4.44 4.97 0 0.57 0.24 33.78 0.29 35.5 4.47 39.36 4.29 13.51"/><polygon class="cls-9" points="8.15 26.65 8.15 26.57 8.13 17.9 4.48 13.73 4.29 13.51 4.47 39.36 4.47 39.44 8.19 43.51 8.19 43.51 8.15 26.65"/></g></g></svg>