<svg xmlns="http://www.w3.org/2000/svg" xmlns:xlink="http://www.w3.org/1999/xlink" width="56.459" height="65.331" viewBox="0 0 56.459 65.331"><defs><style>.a{fill:url(#a);}</style><linearGradient id="a" x1="0.5" x2="0.5" y2="1" gradientUnits="objectBoundingBox"><stop offset="0" stop-color="#e90000"/><stop offset="0.577" stop-color="#c20909"/><stop offset="0.774" stop-color="#6d0000" stop-opacity="0.722"/><stop offset="0.862" stop-color="#861818"/><stop offset="1" stop-color="#691f1f"/></linearGradient></defs><g transform="translate(136.178 -82.913)"><g transform="translate(-136.178 82.913)"><g transform="translate(9.704 12.463)"><path class="a" d="M-77.263,158.721a10.821,10.821,0,0,0,2.3-.155,3.649,3.649,0,0,1,1.813.221c.165,0,.159.311.159.476.989.659,1.992,2.128,1,3.118a5.128,5.128,0,0,1-2.051.922,4.112,4.112,0,0,1-2.208-.115c.495-.165.417.357.582.522,0,.659.6,1.5.1,2.164,0,.165-.946.161-.946,0a10.24,10.24,0,0,1-.728-3.522c-.065-1.21.007-2.421-.077-3.59C-77.316,158.741-77.263,158.721-77.263,158.721Zm1.681,3.165c0,.495.3-.188.462.141.495-.33,1.352-.133,1.682-.628-.165-.165-.343-.173-.343-.833,0-.824-1.173-.494-1.833-.494.495.659-.2,1.165-.038,1.825C-75.648,161.914-75.582,161.887-75.582,161.887Z" transform="translate(77.315 -158.508)"/><g transform="translate(6.109 0.384)"><path class="a" d="M-40.218,160.893c1.319,0,2.638-.058,3.957-.058a2.506,2.506,0,0,1,2.337,1.335,5.212,5.212,0,0,1,.3,2.737,2.549,2.549,0,0,1-1.614,2.124c-.171.08-.19.1-.19.268-.33.165-.672.305-1,.47-.659.165-1.5-.344-2.156-.014-.165.165-.466-.009-.63-.009-.495-.165-.657-.95-.657-1.445a20.351,20.351,0,0,1-.327-2.709c-.042-.91-.058-1.82-.058-2.73C-40.261,160.847-40.218,160.893-40.218,160.893Zm1.634,5.766a2.292,2.292,0,0,0,2.236-.043,1.773,1.773,0,0,0,.881-1.959c0-.659.416-1.178.251-1.673A2.623,2.623,0,0,0-37.4,161.6c-.182.026-.017.16-.17.263-.33,0-.664.011-.994.011.495,0-.037.311-.037.476,0,1.484-.169,2.807-.169,4.291.009.082.123-.007.2.008C-38.556,166.647-38.584,166.659-38.584,166.659Z" transform="translate(40.261 -160.835)"/></g><g transform="translate(13.305 0.207)"><path class="a" d="M3.809,159.935a5.918,5.918,0,0,1,2.394-.1,11.2,11.2,0,0,0,2.364.174c0,.659-.3,1.253-.63,1.253a10.234,10.234,0,0,1-3.157-.256.961.961,0,0,1,.826,1.253c-.165.165-.3.318-.47.483.659-.165,1.505.419,2.165.09.33,0,.686-.246.85.084,0,.165-.116.545-.116.71a.775.775,0,0,0,.9.251c-1.319,0-2.619.5-3.938-.162.33,0,.357.356.522.521.165.989-.594,1.82-.1,2.81-.659-.165-1.376-.5-2.035-.169.495-1.154.366-2.315.7-3.469.165-.495.092-1.126.257-1.62s-.223-1-.223-1.493c0-.165-.152-.149-.317-.314C3.79,159.97,3.809,159.935,3.809,159.935Z" transform="translate(-3.388 -159.763)"/></g></g><g transform="translate(19.067 29.892)"><path class="a" d="M5.118,281.734c.165,0,.324-.069.324-.234-.33-1.319-1.973-1.735-3.127-1.735s-2.282-.281-3.4-.3A8.85,8.85,0,0,0-4.463,280c0,.989.425.405.236-.009-.989-.824-1.333-2.142-1.992-3.131a5.037,5.037,0,0,1-.6-3.456,7.524,7.524,0,0,1,1.237-2.943c0-.165-.016-.339-.016-.5a2.066,2.066,0,0,0,.354-1.657,12.864,12.864,0,0,0-1.525-3.437,1.771,1.771,0,0,0-2.3-.361,3.647,3.647,0,0,0-.755,1.838,15.1,15.1,0,0,0-.064,2.9c.1.944.39,1.866.554,2.851.165.33.116.671.446.836-.165.165-.38-.178-.38.151-.33.659-.609,1.5-.939,2.161a7.317,7.317,0,0,1-2.01,2.455,5.83,5.83,0,0,1-.42,2.225,7.382,7.382,0,0,1-1.18,1.949,16.134,16.134,0,0,0-3.116,1.249,12.04,12.04,0,0,0-2.72,1.97,4.191,4.191,0,0,0-.565,4.147c.165.659,1.113.591,1.937.591a5.4,5.4,0,0,0,2.311-1.1,6.266,6.266,0,0,0,1.629-1.948,17.258,17.258,0,0,0,1.1-2.618,9.823,9.823,0,0,1,1.4-2.447c1.484-.165,2.792-.3,4.276-.47a16.348,16.348,0,0,1,3.976-.449,8.083,8.083,0,0,0,2.187,2.066,7.051,7.051,0,0,0,2.762,1.172,4.927,4.927,0,0,0,2.973-.484c.495-.33,1.212-.858,1.048-1.683-.165,0-.178-.028-.178-.193C5.2,281.629,5.118,281.734,5.118,281.734Zm-24.99,6.513a3.041,3.041,0,0,1,1.246-2.466c.729-.486,1.377-1.154,2.1-1.644a4.732,4.732,0,0,1,2.589-.855c-.989-.165-1.247,1.17-1.741,1.829-.56.719-1.1,1.607-1.736,2.282a2.266,2.266,0,0,1-2.518.823C-19.961,288.205-19.873,288.247-19.873,288.247Zm9.881-21.217a3.172,3.172,0,0,0,.76-1.688c.165-.495.773-.386,1.1-.55-.165,0-.188.057-.353.057.165.824.386,1.817.551,2.641.165,1.319-.529,2.469-.529,3.788,0,.33.411.457.576.622a3.583,3.583,0,0,1-1.409-2.285,7.769,7.769,0,0,0-.744-2.632C-10.054,266.953-9.991,267.03-9.991,267.03Zm1.878,13.094a10.8,10.8,0,0,1-2.428,1.051c-.074.037.245.075.162.075-.33,0-.751-.215-.586-.38a10.024,10.024,0,0,1,1.172-2.456c.486-.767,1.04-1.522,1.444-2.33a1.129,1.129,0,0,1,1.071-.489c-.165.33.265.614.265.944.165.495.575,1.011.74,1.505.495.824,1.5,1.478,1.994,2.3-1.154-.659-2.472-.191-3.791-.191A.045.045,0,0,1-8.113,280.124Zm4.8.289a8.206,8.206,0,0,0,2.547.086,14.966,14.966,0,0,1,2.552-.074,3.023,3.023,0,0,1,2.1,1.243A2.08,2.08,0,0,1,1.661,282.8a16.848,16.848,0,0,1-2.619-.947,7.792,7.792,0,0,1-2.3-1.536C-3.287,280.289-3.31,280.413-3.31,280.413Z" transform="translate(20.522 -264.226)"/></g><path class="a" d="M-80.377,92.919a1.658,1.658,0,0,0-.251-.206,1.839,1.839,0,0,0-.831-.3,22.825,22.825,0,0,1-1.976-1.52c-.577-.51-1.115-1.057-1.685-1.636q-.3-.3-.6-.606l-.079-.079c-.738-.738-1.5-1.5-2.269-2.257-.594-.585-1.2-1.148-1.824-1.707-.021-.134-.045-.268-.075-.4a1.648,1.648,0,0,0-1.967-1.252,1.638,1.638,0,0,0-.767.406c-.168.017-.313.042-.425.061-.06.01-.14.024-.175.028a1.646,1.646,0,0,0-.338.039,8.42,8.42,0,0,1-1.865.163h0c-.35,0-.7-.009-1.072-.018s-.755-.019-1.143-.02q-.66-.011-1.321-.017c-.56-.006-1.119-.013-1.679-.024s-1.1-.024-1.648-.038q-.683-.017-1.365-.032c-.49-.01-1-.032-1.487-.052s-1.012-.043-1.527-.054-1.048-.009-1.553-.007-.984,0-1.465-.006-.97-.027-1.455-.044c-.521-.018-1.042-.035-1.563-.046-.474-.01-.962-.028-1.434-.045-.517-.019-1.052-.039-1.586-.048-.468-.009-.932-.028-1.422-.048-.52-.022-1.059-.044-1.6-.052-.577-.009-1.154-.012-1.731-.015-.431,0-.862,0-1.293-.01q-.623-.007-1.246-.018c-.593-.01-1.187-.019-1.78-.023-.577,0-1.13.035-1.666.073-.307.021-.6.042-.891.054a1.651,1.651,0,0,0-.236-.052,1.648,1.648,0,0,0-1.826,1.2,8.915,8.915,0,0,0-.147,3.42l.016.146a13.772,13.772,0,0,1,.109,1.386h-.284a9.4,9.4,0,0,0-2.069.161,3.626,3.626,0,0,1-.9-.088,1.648,1.648,0,0,0-1.294.107,1.648,1.648,0,0,0-.815,1.01c-.071.252-.147.5-.223.746a15.462,15.462,0,0,0-.534,2.092,15.547,15.547,0,0,0-.16,1.952c-.013.338-.025.657-.05.968-.027.327-.065.659-.106,1.011-.069.594-.14,1.209-.159,1.855-.016.58,0,1.15.012,1.7.01.392.019.762.018,1.132,0,.426-.024.859-.047,1.318-.024.476-.05.968-.051,1.471,0,.47.022.909.045,1.334.025.468.049.911.036,1.348a1.648,1.648,0,0,0,.628,1.344,1.648,1.648,0,0,0,1.02.353,1.65,1.65,0,0,0,.434-.058,12.055,12.055,0,0,1,1.937-.3l.544-.056a23.782,23.782,0,0,1,2.489-.132c-.019.237-.037.473-.058.714-.039.446-.094.891-.152,1.362-.068.55-.138,1.118-.183,1.7-.032.413-.068.825-.1,1.237-.052.6-.106,1.213-.148,1.829-.039.579-.045,1.145-.051,1.693,0,.482-.01.936-.036,1.383s-.082.891-.141,1.37c-.067.544-.137,1.107-.166,1.693-.044.889-.086,1.836-.137,3.072-.031.739-.054,1.478-.078,2.217l-.028.854c-.014.412-.03.824-.047,1.235-.024.6-.049,1.22-.065,1.835-.015.568,0,1.127.01,1.666.011.488.021.949.012,1.406-.008.423-.02.846-.031,1.268-.016.6-.031,1.2-.04,1.8l-.009.619c-.012.817-.024,1.634-.031,2.45,0,.562,0,1.124.007,1.668.005.467.01.933.008,1.4s-.013.958-.024,1.431c-.012.541-.025,1.1-.025,1.654a1.649,1.649,0,0,0,.489,1.172,1.638,1.638,0,0,0,1.177.476l.8-.009c.7-.009,1.4-.017,2.1-.019.54,0,1.095.007,1.631.015.417.006.835.013,1.252.015.528,0,1.071.014,1.6.025.43.009.859.018,1.289.023l.637.007c.75.008,1.5.016,2.251.029.511.008,1.012-.007,1.5-.021s.944-.028,1.4-.019.9.04,1.378.074.994.07,1.512.081c.536.012,1.054-.012,1.555-.034.47-.021.914-.041,1.342-.032s.884.043,1.356.077c.5.036,1.011.074,1.538.086.451.01.9.031,1.376.055.494.024,1.006.049,1.521.059.532.01,1.064.015,1.6.019.435,0,.871.007,1.306.014.587.01,1.173.014,1.76.018l1.144.01c.553.008,1.083-.025,1.6-.057.458-.028.889-.055,1.309-.051s.863.022,1.321.043c.513.024,1.047.045,1.586.047.427,0,.856.012,1.31.025s.9.027,1.367.027h.234c.551-.006,1.089-.039,1.609-.071.452-.028.879-.054,1.3-.063s.833-.008,1.278-.008c.549,0,1.116,0,1.676-.017a1.649,1.649,0,0,0,1.165-.536,1.649,1.649,0,0,0,.429-1.208c-.028-.47-.07-.942-.111-1.4-.05-.559-.1-1.088-.119-1.6-.019-.478-.007-.971.007-1.492.013-.48.025-.975.013-1.483-.011-.43-.028-.861-.046-1.291-.024-.581-.046-1.129-.052-1.682-.007-.67,0-1.357,0-2.022q0-.478,0-.955c0-.418,0-.836-.006-1.253,0-.569-.01-1.157,0-1.726.006-.412.008-.825.01-1.237,0-.574.006-1.169.019-1.745.011-.451.015-.9.019-1.355,0-.538.01-1.094.027-1.631.015-.479.054-.964.095-1.476.039-.488.079-.993.1-1.508.022-.58.051-1.16.079-1.74.02-.415.041-.831.059-1.247l.01-.222q.061-1.384.124-2.768c.024-.509.035-1.017.047-1.508.012-.514.023-1,.047-1.486.025-.51.04-1.021.055-1.516s.029-.993.054-1.48c.023-.452.071-.912.121-1.4.054-.514.109-1.045.136-1.592s.018-1.1.009-1.625c-.008-.483-.016-.939,0-1.381s.059-.912.1-1.4c.043-.52.087-1.057.11-1.6.024-.578.041-1.16.057-1.722.012-.428.024-.856.04-1.284.022-.6.035-1.2.048-1.779.009-.41.018-.82.03-1.23,0-.016,0-.032,0-.048,0-.039.015-.148.026-.227A2.566,2.566,0,0,0-80.377,92.919Zm-7.673-1.938q.291.291.58.587.268.273.545.55c-.259-.012-.515-.027-.771-.05-.05,0-.1-.007-.149-.007a5.141,5.141,0,0,1-.713-.08,8.052,8.052,0,0,0-1.143-.117,8.747,8.747,0,0,1-.111-1.142l-.02-.429c-.018-.375-.034-.755-.046-1.134.59.585,1.178,1.172,1.75,1.743Zm-43.844,14.4c-.173.019-.345.036-.515.053l-.451.046c-.013-.264-.022-.52-.021-.778,0-.425.024-.856.047-1.314.024-.478.05-.972.051-1.477,0-.416-.009-.828-.019-1.225-.013-.531-.026-1.033-.012-1.525s.074-1.019.138-1.567c.042-.364.086-.741.117-1.126s.045-.75.059-1.107a12.854,12.854,0,0,1,.119-1.545,9.316,9.316,0,0,1,.266-1.107,3.089,3.089,0,0,0,.83-.045,5.989,5.989,0,0,1,1.476-.112c.251,0,.514,0,.788-.01a1.646,1.646,0,0,0,1.193.158,8.4,8.4,0,0,1,2.41-.121c.188.008.377.021.566.034a9.062,9.062,0,0,0,2.585-.091c.257,0,.509-.013.758-.026.106.007.21.016.316.022.532.028,1.054.03,1.559.032s.981,0,1.448.031c.549.031,1.1.054,1.634.076.46.019.921.038,1.38.062.43.023.855.054,1.3.087.559.041,1.137.084,1.72.108l.735.031c.753.033,1.531.067,2.307.084,1.082.024,2.083.033,3.056.028.361,0,.718,0,1.1.009.64.009,1.3.018,1.975-.008.327-.013.648-.03.965-.049l.134.006c0,.25,0,.5,0,.741v.372q0,.757,0,1.514,0,.689,0,1.377c-.093.97-.128,1.947-.162,2.893l-.033.882a27.082,27.082,0,0,0,0,3.166c.04.519.108,1.058.209,1.638q-.391-.044-.764-.072c-.6-.044-1.191-.065-1.766-.084-.522-.018-1.061-.036-1.589-.073-.956-.124-1.922-.223-2.873-.3q-.4-.031-.808-.065c-.679-.056-1.381-.114-2.088-.145-.546-.024-1.079-.017-1.594-.011-.444.005-.863.011-1.275,0-.525-.017-1.044-.047-1.593-.078-.412-.023-.824-.047-1.225-.064l-.652-.034c-.864-.045-1.758-.092-2.643-.107-.39-.007-.778-.02-1.167-.034-.692-.024-1.407-.049-2.134-.037-.67.012-1.313.071-1.934.128-.456.042-.886.082-1.324.1a1.644,1.644,0,0,0-1.1.5h-.5A27.345,27.345,0,0,0-131.895,105.386Zm48.724-6.991c-.016.437-.028.874-.041,1.311-.015.551-.031,1.122-.055,1.677-.02.479-.06.961-.1,1.47-.041.491-.083,1-.106,1.515-.025.547-.016,1.078-.007,1.591.009.492.017.957-.005,1.406s-.071.92-.122,1.411c-.053.509-.108,1.036-.135,1.577-.026.521-.042,1.043-.056,1.547-.014.478-.029.973-.052,1.451-.026.531-.038,1.061-.05,1.573-.011.493-.022.959-.044,1.427q-.066,1.39-.125,2.78l-.01.222c-.018.41-.038.82-.058,1.229-.029.592-.058,1.183-.08,1.774-.017.447-.053.9-.091,1.373-.042.528-.086,1.075-.1,1.633-.018.574-.024,1.149-.029,1.7,0,.436-.008.872-.018,1.308-.015.608-.017,1.218-.02,1.807,0,.4,0,.805-.01,1.208-.008.606,0,1.213,0,1.8,0,.406.007.811.006,1.217q0,.472,0,.944c0,.678-.008,1.379,0,2.076.006.6.031,1.2.055,1.783.017.412.034.825.044,1.238s0,.857-.013,1.315c-.014.552-.029,1.123-.005,1.712.018.446.053.892.091,1.329-.389,0-.788,0-1.181.009-.491.01-.972.04-1.437.069-.5.031-.974.06-1.441.065s-.958-.009-1.467-.024c-.443-.013-.9-.027-1.365-.027h-.05c-.464,0-.932-.021-1.428-.044-.472-.022-.959-.044-1.455-.047-.529,0-1.034.028-1.524.057s-.928.055-1.362.051l-1.156-.01c-.577,0-1.154-.009-1.732-.018-.444-.007-.888-.011-1.331-.014-.52,0-1.039-.009-1.559-.018-.466-.009-.931-.032-1.423-.056s-.971-.048-1.467-.058c-.442-.009-.891-.042-1.367-.077-.493-.036-1-.074-1.525-.085-.539-.012-1.06.011-1.563.034-.468.021-.91.041-1.336.032s-.881-.04-1.351-.073c-.5-.035-1.016-.071-1.545-.082s-1.053.005-1.557.02c-.468.014-.91.027-1.345.02-.756-.012-1.512-.02-2.268-.029l-.635-.007c-.419,0-.838-.014-1.256-.023-.538-.011-1.095-.023-1.649-.026-.407,0-.814-.008-1.221-.014-.551-.008-1.121-.016-1.688-.016-.409,0-.822,0-1.235.009.01-.46.02-.933.022-1.4s0-.966-.008-1.45c-.006-.528-.012-1.074-.007-1.6.007-.81.019-1.62.031-2.431l.009-.62c.008-.587.024-1.174.039-1.761.011-.429.023-.859.031-1.289.011-.527,0-1.045-.012-1.546-.012-.523-.023-1.017-.01-1.5.016-.594.04-1.2.064-1.791.017-.419.033-.837.048-1.256l.028-.859c.023-.729.047-1.459.077-2.188.05-1.226.092-2.165.136-3.044.023-.465.082-.944.145-1.451s.128-1.036.16-1.583c.031-.526.036-1.042.041-1.541.005-.525.011-1.02.043-1.5.04-.583.092-1.184.143-1.765.037-.423.074-.846.107-1.269.039-.506.1-1.014.168-1.551.059-.478.12-.973.164-1.474.029-.326.054-.648.079-.969.411.009.822.014,1.232.018.616.007,1.253.015,1.869.036.514.018,1.028.025,1.525.032.561.008,1.09.016,1.624.037.566.023,1.135.035,1.685.047.492.011.984.022,1.476.04.456.017.92.058,1.411.1.568.05,1.155.1,1.76.118.632.016,1.254,0,1.856-.015.462-.012.9-.023,1.335-.02,1.009.005,2.024-.017,3.007-.039l.177,0c.439,0,.877.006,1.316.011.7.009,1.431.018,2.16,0,.287-.005.577-.008.869-.012l.534-.007c.67.087,1.4.214,2.2.387a1.65,1.65,0,0,0,1.362-.315,1.649,1.649,0,0,0,.631-1.248c.034-1.134.026-2.3.018-3.329-.006-.88-.028-1.765-.049-2.62l-.015-.638c-.025-1.074-.05-2.147-.068-3.221-.011-.629.007-1.258.026-1.925.012-.419.024-.839.028-1.26l0-.362c.01-.936.02-1.9.076-2.824A1.649,1.649,0,0,0-99.2,89.821l-.033,0a1.647,1.647,0,0,0-1-.243c-.608.05-1.21.1-1.818.135l-.112-.005c-.406-.027-.813-.068-1.244-.112-.537-.055-1.092-.112-1.662-.139s-1.115-.024-1.648-.021c-.439,0-.854.005-1.264-.009-.385-.013-.77-.03-1.154-.047-.57-.025-1.16-.051-1.75-.064-.421-.009-.848-.036-1.3-.065-.518-.033-1.054-.067-1.6-.074s-1.1,0-1.637,0c-.421,0-.841.006-1.262,0-.442,0-.881-.015-1.346-.028-.5-.015-1.024-.03-1.549-.03s-1.046.029-1.544.058l-.374.021c-.282-.021-.568-.047-.865-.074-.546-.05-1.11-.1-1.688-.124h-.067c-.647,0-1.313-.01-1.956-.019l-.158,0c-.018-.52-.071-1.014-.123-1.474l-.016-.143c-.038-.341-.065-.658-.073-.956l.127-.009c.5-.035.966-.068,1.415-.065.582,0,1.165.013,1.747.022q.631.01,1.262.018c.437,0,.874.007,1.312.01.566,0,1.133.006,1.7.015.5.008.99.028,1.513.05.488.02.992.041,1.5.05s1.023.028,1.525.047c.485.018.987.036,1.487.046s1.012.028,1.518.045,1,.034,1.5.045c.524.011,1.046.009,1.551.007s.985,0,1.467.006.979.031,1.46.052c.507.021,1.032.044,1.557.055q.677.014,1.353.032c.555.014,1.111.028,1.666.038s1.136.017,1.7.024c.44.005.879.01,1.318.017.357.006.718.009,1.1.019s.764.02,1.157.02h0a12.292,12.292,0,0,0,2.373-.2c0,.065-.007.131-.011.2-.013.222-.025.444-.034.666-.04.97,0,1.919.048,2.837l.019.422a8.218,8.218,0,0,0,.859,3.642,1.648,1.648,0,0,0,2.194.7c.178-.089.438-.061.992.025a8.151,8.151,0,0,0,1.135.117c.528.046,1.03.063,1.516.08.381.013.74.026,1.093.051.254.018.509.031.766.044.5.026.985.053,1.453.12q-.013.5-.025,1.01C-83.137,97.232-83.15,97.821-83.171,98.394Z" transform="translate(136.178 -82.913)"/></g></g></svg>