<svg xmlns="http://www.w3.org/2000/svg" xml:space="preserve" viewBox="0 0 512 512">
  <path d="M426.667 0H85.333c-14.114 0-25.6 11.486-25.6 25.6v460.8c0 14.114 11.486 25.6 25.6 25.6h341.333c14.114 0 25.6-11.486 25.6-25.6V25.6C452.267 11.486 440.781 0 426.667 0M249.941 70.741c3.243-3.157 8.875-3.157 12.117 0 .768.853 1.365 1.792 1.792 2.816s.683 2.133.683 3.243c0 2.304-.853 4.437-2.475 6.059-1.621 1.613-3.755 2.475-6.059 2.475-1.109 0-2.219-.256-3.243-.683s-1.963-1.024-2.816-1.792c-1.621-1.621-2.475-3.755-2.475-6.059.002-2.219.94-4.446 2.476-6.059m-36.608-2.474h8.533c4.71 0 8.533 3.814 8.533 8.533s-3.823 8.533-8.533 8.533h-8.533c-4.71 0-8.533-3.814-8.533-8.533s3.823-8.533 8.533-8.533m0 34.133H256c4.71 0 8.533 3.814 8.533 8.533s-3.823 8.533-8.533 8.533h-42.667c-4.71 0-8.533-3.814-8.533-8.533s3.823-8.533 8.533-8.533m51.2 42.667c0 2.304-.853 4.437-2.475 5.973-1.621 1.698-3.755 2.56-6.059 2.56s-4.437-.862-6.059-2.56c-1.621-1.536-2.475-3.669-2.475-5.973 0-1.109.256-2.219.683-3.243s1.024-1.963 1.792-2.816c3.243-3.157 8.875-3.157 12.117 0 .768.853 1.365 1.792 1.792 2.816.428 1.024.684 2.133.684 3.243m-51.2-8.534h8.533c4.71 0 8.533 3.814 8.533 8.533s-3.823 8.533-8.533 8.533h-8.533c-4.71 0-8.533-3.814-8.533-8.533s3.823-8.533 8.533-8.533m0 34.134H256c4.71 0 8.533 3.814 8.533 8.533s-3.823 8.533-8.533 8.533h-42.667c-4.71 0-8.533-3.814-8.533-8.533s3.823-8.533 8.533-8.533m-93.866-102.4H179.2c4.71 0 8.533 3.814 8.533 8.533s-3.823 8.533-8.533 8.533h-59.733c-4.71 0-8.533-3.814-8.533-8.533s3.822-8.533 8.533-8.533m0 68.266H179.2c4.71 0 8.533 3.814 8.533 8.533s-3.823 8.533-8.533 8.533h-59.733c-4.71 0-8.533-3.814-8.533-8.533s3.822-8.533 8.533-8.533m42.666 264.534h-42.667c-4.71 0-8.533-3.814-8.533-8.533s3.823-8.533 8.533-8.533h42.667c4.71 0 8.533 3.814 8.533 8.533.001 4.718-3.822 8.533-8.533 8.533m42.667 0h-8.533c-4.71 0-8.533-3.814-8.533-8.533s3.823-8.533 8.533-8.533h8.533c4.71 0 8.533 3.814 8.533 8.533 0 4.718-3.823 8.533-8.533 8.533m67.584 28.842c-.427 1.024-1.024 1.954-1.792 2.816-1.621 1.613-3.755 2.475-6.059 2.475-1.109 0-2.219-.256-3.243-.683s-1.963-1.024-2.816-1.792c-.768-.862-1.365-1.792-1.792-2.816s-.683-2.133-.683-3.243c0-2.219.939-4.446 2.475-6.059 2.389-2.389 6.144-3.157 9.301-1.792 1.024.427 1.963 1.024 2.816 1.792 1.536 1.613 2.475 3.84 2.475 6.059.001 1.11-.255 2.219-.682 3.243M256 392.533c0-4.719 3.823-8.533 8.533-8.533h25.6c4.71 0 8.533 3.814 8.533 8.533s-3.823 8.533-8.533 8.533h-25.6c-4.71.001-8.533-3.814-8.533-8.533m68.267 42.667h-25.6c-4.71 0-8.533-3.814-8.533-8.533s3.823-8.533 8.533-8.533h25.6c4.71 0 8.533 3.814 8.533 8.533s-3.823 8.533-8.533 8.533m59.733 0h-25.6c-4.71 0-8.533-3.814-8.533-8.533s3.823-8.533 8.533-8.533H384c4.71 0 8.533 3.814 8.533 8.533S388.71 435.2 384 435.2m0-34.133h-59.733c-4.71 0-8.533-3.814-8.533-8.533s3.823-8.533 8.533-8.533H384c4.71 0 8.533 3.814 8.533 8.533 0 4.718-3.823 8.533-8.533 8.533m8.533-42.667H119.467c-4.71 0-8.533-3.814-8.533-8.533s3.823-8.533 8.533-8.533h273.067c4.71 0 8.533 3.814 8.533 8.533s-3.823 8.533-8.534 8.533m-281.6-85.333c0-4.719 3.823-8.533 8.533-8.533h42.667c4.71 0 8.533 3.814 8.533 8.533s-3.823 8.533-8.533 8.533h-42.667c-4.71 0-8.533-3.814-8.533-8.533m76.8 0c0-4.719 3.823-8.533 8.533-8.533h8.533c4.71 0 8.533 3.814 8.533 8.533s-3.823 8.533-8.533 8.533h-8.533c-4.71 0-8.533-3.814-8.533-8.533M384 298.667c4.71 0 8.533 3.814 8.533 8.533s-3.823 8.533-8.533 8.533h-59.733c-4.71 0-8.533-3.814-8.533-8.533s3.823-8.533 8.533-8.533zm-51.2-25.6c0-4.719 3.823-8.533 8.533-8.533h8.533c4.71 0 8.533 3.814 8.533 8.533s-3.823 8.533-8.533 8.533h-8.533c-4.71 0-8.533-3.814-8.533-8.533m42.667 0c0-1.109.256-2.219.683-3.243.427-1.109 1.024-1.963 1.792-2.816 3.157-3.157 8.875-3.157 12.117 0 .768.853 1.365 1.792 1.792 2.816.512 1.024.683 2.133.683 3.243 0 1.109-.171 2.219-.683 3.243-.427 1.024-1.024 1.954-1.792 2.816-1.621 1.613-3.755 2.475-6.059 2.475-1.109 0-2.219-.256-3.243-.683s-1.963-1.024-2.816-1.792c-.768-.862-1.365-1.792-1.792-2.816-.426-1.025-.682-2.134-.682-3.243M307.2 281.6h-42.667c-4.71 0-8.533-3.814-8.533-8.533s3.823-8.533 8.533-8.533H307.2c4.71 0 8.533 3.814 8.533 8.533s-3.823 8.533-8.533 8.533m-42.667 17.067h25.6c4.71 0 8.533 3.814 8.533 8.533s-3.823 8.533-8.533 8.533h-25.6c-4.71 0-8.533-3.814-8.533-8.533s3.823-8.533 8.533-8.533m128-59.734H119.467c-4.71 0-8.533-3.814-8.533-8.533s3.823-8.533 8.533-8.533h273.067c4.71 0 8.533 3.814 8.533 8.533s-3.823 8.533-8.534 8.533m8.534-59.733c0 4.719-3.823 8.533-8.533 8.533S384 183.919 384 179.2v-40.866c0-18.825-15.309-34.133-34.133-34.133-18.825 0-34.133 15.309-34.133 34.133V179.2c0 4.719-3.823 8.533-8.533 8.533s-8.533-3.814-8.533-8.533v-40.866c0-19.285 10.726-36.096 26.513-44.826-5.82-6.127-9.446-14.353-9.446-23.45 0-18.816 15.309-34.125 34.133-34.125h.017c9.105 0 17.673 3.55 24.115 9.993 6.45 6.452 10 15.019 10 24.133 0 9.097-3.627 17.323-9.446 23.45 15.787 8.73 26.513 25.54 26.513 44.826z" fill="currentColor"/>
  <path d="M349.884 53.001h-.017c-9.412 0-17.067 7.646-17.067 17.058s7.654 17.067 17.067 17.067c9.412 0 17.067-7.654 17.067-17.067 0-4.557-1.775-8.841-5.001-12.066-3.217-3.218-7.501-4.992-12.049-4.992" fill="currentColor"/>
</svg>