<svg xmlns="http://www.w3.org/2000/svg" viewBox="0 0 54 35">
    <path stroke="currentColor" d="M6.98242188 14.37304688c.30078124.30078124.70898437.30078124 1.00976562-.02148438 5.02734375-5.2421875 11.859375-8.14257812 19.46484375-8.14257812 7.62695313 0 14.58789063 2.79296874 19.48632813 8.14257812.30078125.32226563.70898437.32226563 1.00976562.02148438l2.40625-2.40625c.2578125-.27929688.2578125-.66601563.02148438-.96679688-4.76953125-5.80078125-13.90039063-9.8828125-22.92382813-9.8828125C18.45507813 1.1171875 9.30273438 5.17773438 4.5546875 11c-.23632812.30078125-.21484375.6875.02148438.96679688Zm8.59375 8.63671875c.32226562.30078124.66601562.30078124 1.03125-.0859375 2.59960937-2.79296876 6.83203125-4.68359376 10.84960937-4.66210938 4.0390625-.02148437 8.27148438 1.86914063 10.87109375 4.66210938.36523438.38671874.70898438.38671874 1.03125.0859375L42.13085938 20.28125c.23632812-.2578125.27929687-.6015625.04296875-.88085937-2.98632813-3.71679688-8.78710938-6.20898438-14.71679688-6.20898438-5.90820312 0-11.6875 2.51367188-14.6953125 6.20898438-.23632812.27929687-.19335937.62304687.04296875.88085937Zm11.88085937 11.32226562c.30078125 0 .58007813-.19335937 1.26757813-.83789062l4.85546874-4.66210938c.23632813-.21484375.30078125-.47265625.04296875-.79492187-1.09570312-1.48242188-3.63085937-2.79296876-6.16601562-2.79296876-2.51367187 0-5.04882812 1.31054688-6.14453125 2.79296876-.21484375.32226562-.19335937.58007812.04296875.79492187l4.85546875 4.66210938c.6875.6875.96679688.83789062 1.24609375.83789062Z"/>
</svg>